<?xml version="1.0" encoding="utf-8"?>
<!-- Generator: Adobe Illustrator 23.0.1, SVG Export Plug-In . SVG Version: 6.00 Build 0)  -->
<svg version="1.1" id="Слой_1" xmlns="http://www.w3.org/2000/svg" xmlns:xlink="http://www.w3.org/1999/xlink" x="0px" y="0px"
	 viewBox="0 0 512 512" style="enable-background:new 0 0 512 512;" xml:space="preserve">
<style type="text/css">
	.st0{clip-path:url(#SVGID_2_);}
	.st1{fill:#343434;}
</style>
<g>
	<defs>
		<rect id="SVGID_1_" width="512" height="512"/>
	</defs>
	<clipPath id="SVGID_2_">
		<use xlink:href="#SVGID_1_"  style="overflow:visible;"/>
	</clipPath>
	<g id="menu_50px_rounded" class="st0">
		<g id="Line_1">
			<path class="st1" d="M486.3,410.4H25.2c-13.9,0-25.2-11.2-25.2-25s11.3-25,25.2-25h461.2c13.9,0,25.2,11.2,25.2,25
				S500.2,410.4,486.3,410.4z"/>
		</g>
		<g id="Line_2">
			<path class="st1" d="M486.3,280.4H25.2c-13.9,0-25.2-11.2-25.2-25c0-13.8,11.3-25,25.2-25h461.2c13.9,0,25.2,11.2,25.2,25
				C511.5,269.2,500.2,280.4,486.3,280.4z"/>
		</g>
		<g id="Line_3">
			<path class="st1" d="M486.3,150.4H25.2c-13.9,0-25.2-11.2-25.2-25s11.3-25,25.2-25h461.2c13.9,0,25.2,11.2,25.2,25
				S500.2,150.4,486.3,150.4z"/>
		</g>
	</g>
</g>
</svg>
