<?xml version="1.0" encoding="utf-8"?>
<!-- Generator: Adobe Illustrator 23.0.1, SVG Export Plug-In . SVG Version: 6.00 Build 0)  -->
<svg version="1.1" id="Слой_1" xmlns="http://www.w3.org/2000/svg" xmlns:xlink="http://www.w3.org/1999/xlink" x="0px" y="0px"
	 viewBox="0 0 512 512" style="enable-background:new 0 0 512 512;" xml:space="preserve">
<style type="text/css">
	.st0{clip-path:url(#SVGID_2_);}
	.st1{fill:#343434;}
</style>
<g>
	<defs>
		<rect id="SVGID_1_" width="512" height="512"/>
	</defs>
	<clipPath id="SVGID_2_">
		<use xlink:href="#SVGID_1_"  style="overflow:visible;"/>
	</clipPath>
	<g id="place_fill" class="st0">
		<g id="Exclusion_6" transform="translate(-12425.004 -8494)">
			<path class="st1" d="M12683.3,8981.9c-10.9-13.3-28.2-34.7-47.1-59.1c-18.5-23.8-34.8-45.7-48.6-65.1
				c-17.1-24.1-30.1-44.3-38.9-60.1c-8.6-15.6-15.9-31.7-21.7-48c-4.6-13-8.3-26-10.8-38.8c-4.3-21.1-4.2-34.3-4.2-34.5
				c0-11.6,1.2-22.9,3.5-33.9c2.2-10.7,5.6-21.2,9.9-31.3c4.3-9.9,9.5-19.4,15.7-28.4c6.1-8.8,13.1-17.2,20.8-24.8
				c7.7-7.6,16.1-14.5,25.1-20.5c9.1-6,18.7-11.2,28.7-15.4c10.2-4.3,20.8-7.6,31.6-9.8c11.1-2.3,22.4-3.4,33.8-3.4
				c11.1,0,22.2,1.2,33.1,3.5c10.6,2.3,21,5.7,31.1,10.1c9.9,4.3,19.4,9.7,28.4,15.9c8.9,6.2,17.3,13.2,25,21
				c7.7,7.8,14.7,16.3,20.9,25.3c6.2,9.1,11.6,18.8,16,28.8c4.5,10.2,8,20.7,10.4,31.4c2.5,11,3.9,22.2,4.2,33.3v0l0.1,3.5l0,0
				c-0.1,1.3-0.2,3.1-0.4,5.2c-0.5,5.3-1.7,14.1-4.2,25.6c-2.7,12.6-6.4,25.4-11,38.3c-5.6,15.9-12.6,31.7-20.6,46.9
				c-8.3,15.8-20.9,35.9-37.5,60c-13.4,19.4-29.2,41.3-47.2,65.1C12710.8,8947.3,12693.9,8968.6,12683.3,8981.9z M12681,8573
				c-52.9,0-96,43.1-96,96c0,52.9,43.1,96,96,96c52.9,0,96-43.1,96-96C12777,8616.1,12733.9,8573,12681,8573z"/>
			<path class="st1" d="M12683.2,8957.9c9.6-12.2,21.5-27.4,34-44.1c17.8-23.6,33.6-45.3,46.8-64.6c16.2-23.6,28.5-43.2,36.6-58.5
				c7.7-14.6,14.4-29.7,19.8-44.9c4.3-12.2,7.9-24.5,10.5-36.4c2.4-10.8,3.5-19,4-23.9c0.2-1.6,0.3-2.9,0.3-4l-0.1-2.8l0-0.1
				c-0.3-10.1-1.5-20.3-3.8-30.2c-2.2-9.8-5.4-19.4-9.5-28.7c-4-9.2-9-18-14.7-26.4c-5.7-8.3-12.1-16.1-19.1-23.2
				c-7.1-7.1-14.8-13.6-22.9-19.2c-8.2-5.7-16.9-10.6-25.9-14.5c-9.1-4-18.6-7.1-28.2-9.1c-9.8-2.1-19.9-3.2-29.9-3.2
				c-10.3,0-20.7,1-30.8,3.1c-9.8,2-19.5,5-28.8,8.9c-9.1,3.8-17.9,8.6-26.2,14.1c-8.2,5.5-15.9,11.8-22.9,18.7
				c-7,6.9-13.4,14.5-18.9,22.6c-5.6,8.1-10.4,16.8-14.3,25.8c-3.9,9.2-7,18.7-9,28.4c-2.1,10-3.1,20.3-3.1,30.5v0.8
				c0,2.3,0.4,13.7,3.9,30.9c2.4,12.1,5.9,24.5,10.3,36.8c5.5,15.5,12.5,30.9,20.7,45.7c8.5,15.3,21.3,35,38,58.6
				c13.7,19.3,29.9,41,48.2,64.6C12661.1,8930.4,12673.3,8945.7,12683.2,8957.9 M12681,8558c61.2,0,111,49.8,111,111
				s-49.8,111-111,111c-61.2,0-111-49.8-111-111S12619.8,8558,12681,8558 M12683.5,9005.6L12683.5,9005.6
				c-1.1-1.3-27.9-33.3-59.1-73.6c-18.6-23.9-35.1-46-49-65.6c-17.4-24.5-30.8-45.2-39.8-61.5c-9-16.3-16.6-33.2-22.7-50.2
				c-4.8-13.6-8.7-27.4-11.4-40.9c-4.7-23.2-4.5-37.6-4.5-37.7c0-12.3,1.3-24.7,3.8-36.7c2.4-11.7,6.1-23.2,10.8-34.2
				c4.6-10.8,10.4-21.2,17.1-30.9c6.6-9.6,14.2-18.7,22.6-27c8.4-8.2,17.5-15.7,27.3-22.2c9.8-6.6,20.4-12.2,31.2-16.8
				c11.1-4.7,22.6-8.2,34.4-10.6c12-2.5,24.4-3.7,36.8-3.7c12.1,0,24.3,1.3,36.2,3.9c11.6,2.5,23,6.2,33.9,11
				c10.7,4.7,21.1,10.5,30.9,17.3c9.7,6.7,18.8,14.4,27.1,22.8c8.3,8.4,15.9,17.6,22.6,27.4c6.7,9.9,12.6,20.4,17.3,31.2
				c4.9,11,8.7,22.5,11.3,34.2c2.7,11.9,4.2,24.1,4.6,36.3c0-0.3,0-0.5,0-0.5l0,0c0,0.1,0,0.2,0,0.4c0,0,0,0,0,0.1c0,0,0,0,0,0
				c0,0,0,0,0,0c0.2,0.3,0.2,4.1-0.5,10.6c-0.6,5.7-1.8,15.1-4.5,27.3c-2.9,13.2-6.7,26.7-11.5,40.1c-5.9,16.6-13.1,33-21.5,48.9
				c-8.6,16.3-21.5,36.9-38.3,61.4c-13.5,19.6-29.5,41.7-47.6,65.7C12710.3,8972.8,12683.7,9005.3,12683.5,9005.6L12683.5,9005.6z
				 M12681,8588c-44.7,0-81,36.3-81,81c0,44.7,36.3,81,81,81c44.7,0,81-36.3,81-81C12762,8624.3,12725.7,8588,12681,8588z
				 M12865,8678C12865,8678,12865,8678,12865,8678L12865,8678L12865,8678c0,0.3,0,0.3,0,0.3C12865,8678.3,12865,8678.3,12865,8678z"
				/>
		</g>
	</g>
</g>
</svg>
