<svg xmlns="http://www.w3.org/2000/svg" xmlns:xlink="http://www.w3.org/1999/xlink" version="1.1" style="enable-background:new 0 0 512 512;" xml:space="preserve" width="512" height="512"><rect id="backgroundrect" width="100%" height="100%" x="0" y="0" fill="none" stroke="none"/>





















<g class="currentLayer" style=""><title>Layer 1</title><g id="svg_1" class="" fill="#4a97df" fill-opacity="1">
	<g id="svg_2" fill="#4a97df" fill-opacity="1">
		<path d="M476.9844462351799,232.1894462351799 l-13.259,-53.035 c3.625,-0.77 6.345,-3.9859999999999998 6.345,-7.839 v-8.551 c0,-18.566 -15.105,-33.67 -33.67,-33.67 h-60.392 V111.4564462351799 c0,-9.136 -7.432,-16.568 -16.568,-16.568 H51.5984462351799 c-9.136,0 -16.568,7.432 -16.568,16.568 V256.8264462351799 c0,4.427 3.589,8.017 8.017,8.017 c4.427,0 8.017,-3.589 8.017,-8.017 V111.4564462351799 c0,-0.29500000000000004 0.23900000000000002,-0.534 0.534,-0.534 h307.841 c0.29500000000000004,0 0.534,0.23900000000000002 0.534,0.534 v145.372 c0,4.427 3.589,8.017 8.017,8.017 c4.427,0 8.017,-3.589 8.017,-8.017 v-9.088 h94.569 c0.008000000000000002,0 0.014000000000000002,0.0020000000000000005 0.021000000000000005,0.0020000000000000005 c0.008000000000000002,0 0.015000000000000003,-0.0010000000000000002 0.022000000000000006,-0.0010000000000000002 c11.637,0.008000000000000002 21.518,7.646 24.912,18.171 h-24.928 c-4.427,0 -8.017,3.589 -8.017,8.017 v17.102 c0,13.851 11.268,25.119 25.119,25.119 h9.086 v35.273 h-20.962 c-6.886,-19.883 -25.787,-34.205 -47.982,-34.205 s-41.097,14.322 -47.982,34.205 h-3.8600000000000003 v-60.393 c0,-4.427 -3.589,-8.017 -8.017,-8.017 c-4.427,0 -8.017,3.589 -8.017,8.017 v60.391 H193.6434462351799 c-6.886,-19.883 -25.787,-34.205 -47.982,-34.205 s-41.097,14.322 -47.982,34.205 H51.5984462351799 c-0.29500000000000004,0 -0.534,-0.23900000000000002 -0.534,-0.534 v-17.637 h34.739 c4.427,0 8.017,-3.589 8.017,-8.017 s-3.589,-8.017 -8.017,-8.017 H8.8434462351799 c-4.427,0 -8.017,3.589 -8.017,8.017 s3.589,8.017 8.017,8.017 h26.188 v17.637 c0,9.136 7.432,16.568 16.568,16.568 h43.304 c-0.0020000000000000005,0.17800000000000002 -0.014000000000000002,0.35500000000000004 -0.014000000000000002,0.534 c0,27.996 22.777,50.772 50.772,50.772 s50.772,-22.776 50.772,-50.772 c0,-0.18000000000000002 -0.012000000000000002,-0.35600000000000004 -0.014000000000000002,-0.534 h180.67 c-0.0020000000000000005,0.17800000000000002 -0.014000000000000002,0.35500000000000004 -0.014000000000000002,0.534 c0,27.996 22.777,50.772 50.772,50.772 c27.995,0 50.772,-22.776 50.772,-50.772 c0,-0.18000000000000002 -0.012000000000000002,-0.35600000000000004 -0.014000000000000002,-0.534 h26.203 c4.427,0 8.017,-3.589 8.017,-8.017 v-85.511 C512.8264462351799,252.8154462351799 497.2494462351799,235.2744462351799 476.9844462351799,232.1894462351799 zM376.0084462351799,145.1274462351799 h60.392 c9.725,0 17.637,7.912 17.637,17.637 v0.534 h-78.029 V145.1274462351799 zM376.0084462351799,231.7074462351799 v-52.376 h71.235 l13.094,52.376 H376.0084462351799 zM145.6614462351799,402.7304462351799 c-19.155,0 -34.739,-15.583 -34.739,-34.739 s15.584,-34.739 34.739,-34.739 c19.155,0 34.739,15.583 34.739,34.739 S164.8164462351799,402.7304462351799 145.6614462351799,402.7304462351799 zM427.8494462351799,402.7304462351799 c-19.155,0 -34.739,-15.583 -34.739,-34.739 s15.584,-34.739 34.739,-34.739 c19.155,0 34.739,15.583 34.739,34.739 S447.0044462351799,402.7304462351799 427.8494462351799,402.7304462351799 zM496.7934462351799,300.1164462351799 h-9.086 c-5.01,0 -9.086,-4.076 -9.086,-9.086 v-9.086 h18.171 V300.1164462351799 z" id="svg_3" fill="#4a97df" fill-opacity="1"/>
	</g>
</g><g id="svg_4" class="" fill="#4a97df" fill-opacity="1">
	<g id="svg_5" fill="#4a97df" fill-opacity="1">
		<path d="M144.835,350.597c-9.136,0-16.568,7.432-16.568,16.568c0,9.136,7.432,16.568,16.568,16.568    c9.136,0,16.568-7.432,16.568-16.568C161.403,358.029,153.971,350.597,144.835,350.597z" id="svg_6" fill="#4a97df" fill-opacity="1"/>
	</g>
</g><g id="svg_7" class="" fill="#4a97df" fill-opacity="1">
	<g id="svg_8" fill="#4a97df" fill-opacity="1">
		<path d="M427.023,350.597c-9.136,0-16.568,7.432-16.568,16.568c0,9.136,7.432,16.568,16.568,16.568    c9.136,0,16.568-7.432,16.568-16.568C443.591,358.029,436.159,350.597,427.023,350.597z" id="svg_9" fill="#4a97df" fill-opacity="1"/>
	</g>
</g><g id="svg_10" class="" fill="#4a97df" fill-opacity="1">
	<g id="svg_11" fill="#4a97df" fill-opacity="1">
		<path d="M332.96,316.393H213.244c-4.427,0-8.017,3.589-8.017,8.017s3.589,8.017,8.017,8.017H332.96    c4.427,0,8.017-3.589,8.017-8.017S337.388,316.393,332.96,316.393z" id="svg_12" fill="#4a97df" fill-opacity="1"/>
	</g>
</g><g id="svg_13" class="" fill="#4a97df" fill-opacity="1">
	<g id="svg_14" fill="#4a97df" fill-opacity="1">
		<path d="M127.733,282.188H25.119c-4.427,0-8.017,3.589-8.017,8.017s3.589,8.017,8.017,8.017h102.614    c4.427,0,8.017-3.589,8.017-8.017S132.16,282.188,127.733,282.188z" id="svg_15" fill="#4a97df" fill-opacity="1"/>
	</g>
</g><g id="svg_16" class="" fill="#4a97df" fill-opacity="1">
	<g id="svg_17" fill="#4a97df" fill-opacity="1">
		<path d="M278.771,173.37c-3.13-3.13-8.207-3.13-11.337,0.001l-71.292,71.291l-37.087-37.087c-3.131-3.131-8.207-3.131-11.337,0    c-3.131,3.131-3.131,8.206,0,11.337l42.756,42.756c1.565,1.566,3.617,2.348,5.668,2.348s4.104-0.782,5.668-2.348l76.96-76.96    C281.901,181.576,281.901,176.501,278.771,173.37z" id="svg_18" fill="#4a97df" fill-opacity="1"/>
	</g>
</g><g id="svg_19">
</g><g id="svg_20">
</g><g id="svg_21">
</g><g id="svg_22">
</g><g id="svg_23">
</g><g id="svg_24">
</g><g id="svg_25">
</g><g id="svg_26">
</g><g id="svg_27">
</g><g id="svg_28">
</g><g id="svg_29">
</g><g id="svg_30">
</g><g id="svg_31">
</g><g id="svg_32">
</g><g id="svg_33">
</g></g></svg>