<svg xmlns="http://www.w3.org/2000/svg" xmlns:xlink="http://www.w3.org/1999/xlink" version="1.1" style="enable-background:new 0 0 512 512;" xml:space="preserve" width="512" height="512"><rect id="backgroundrect" width="100%" height="100%" x="0" y="0" fill="none" stroke="none"/>




















<g class="currentLayer" style=""><title>Layer 1</title><g id="svg_1" class="" fill="#4a97df" fill-opacity="1">
	<g id="svg_2" fill="#4a97df" fill-opacity="1">
		<path d="M298.667,25.6h-85.333c-4.71,0-8.533,3.823-8.533,8.533c0,4.71,3.823,8.533,8.533,8.533h85.333    c4.71,0,8.533-3.823,8.533-8.533C307.2,29.423,303.377,25.6,298.667,25.6z" id="svg_3" fill="#4a97df" fill-opacity="1"/>
	</g>
</g><g id="svg_4" class="" fill="#4a97df" fill-opacity="1">
	<g id="svg_5" fill="#4a97df" fill-opacity="1">
		<path d="M358.4,25.6h-8.533c-4.71,0-8.533,3.823-8.533,8.533c0,4.71,3.823,8.533,8.533,8.533h8.533    c4.71,0,8.533-3.823,8.533-8.533C366.933,29.423,363.11,25.6,358.4,25.6z" id="svg_6" fill="#4a97df" fill-opacity="1"/>
	</g>
</g><g id="svg_7" class="" fill="#4a97df" fill-opacity="1">
	<g id="svg_8" fill="#4a97df" fill-opacity="1">
		<path d="M266.598,435.2H245.41c-12.979,0-23.543,10.564-23.543,23.543v4.122c0,12.979,10.564,23.535,23.535,23.535h21.188    c12.979,0,23.543-10.556,23.543-23.535v-4.122C290.133,445.764,279.569,435.2,266.598,435.2z M273.067,462.865    c0,3.567-2.901,6.468-6.468,6.468H245.41c-3.575,0-6.477-2.901-6.477-6.468v-4.122c0-3.575,2.901-6.477,6.477-6.477h21.18    c3.576,0,6.477,2.901,6.477,6.477V462.865z" id="svg_9" fill="#4a97df" fill-opacity="1"/>
	</g>
</g><g id="svg_10" class="" fill="#4a97df" fill-opacity="1">
	<g id="svg_11" fill="#4a97df" fill-opacity="1">
		<path d="M370.227,0H141.781c-17.007,0-30.848,13.841-30.848,30.848v450.304c0,17.007,13.841,30.848,30.848,30.848h228.437    c17.007,0,30.848-13.841,30.848-30.839V30.848C401.067,13.841,387.226,0,370.227,0z M384,481.152    c0,7.595-6.178,13.781-13.773,13.781H141.781c-7.603,0-13.781-6.187-13.781-13.773V30.848c0-7.595,6.178-13.781,13.781-13.781    h228.437c7.603,0,13.781,6.187,13.781,13.781V481.152z" id="svg_12" fill="#4a97df" fill-opacity="1"/>
	</g>
</g><g id="svg_13" class="" fill="#4a97df" fill-opacity="1">
	<g id="svg_14" fill="#4a97df" fill-opacity="1">
		<path d="M392.533,51.2H119.467c-4.71,0-8.533,3.823-8.533,8.533v358.4c0,4.71,3.823,8.533,8.533,8.533h273.067    c4.71,0,8.533-3.823,8.533-8.533v-358.4C401.067,55.023,397.244,51.2,392.533,51.2z M384,409.6H128V68.267h256V409.6z" id="svg_15" fill="#4a97df" fill-opacity="1"/>
	</g>
</g><g id="svg_16">
</g><g id="svg_17">
</g><g id="svg_18">
</g><g id="svg_19">
</g><g id="svg_20">
</g><g id="svg_21">
</g><g id="svg_22">
</g><g id="svg_23">
</g><g id="svg_24">
</g><g id="svg_25">
</g><g id="svg_26">
</g><g id="svg_27">
</g><g id="svg_28">
</g><g id="svg_29">
</g><g id="svg_30">
</g></g></svg>